<?xml version="1.0" encoding="UTF-8"?>
<svg version="1.1" xmlns="http://www.w3.org/2000/svg" width="225" height="225">
<path d="M0 0 C74.25 0 148.5 0 225 0 C225 74.25 225 148.5 225 225 C150.75 225 76.5 225 0 225 C0 150.75 0 76.5 0 0 Z " fill="#E3E6E8" transform="translate(0,0)"/>
<path d="M0 0 C1.5 1.375 1.5 1.375 3 3 C3 3.66 3 4.32 3 5 C3.71647705 5.26917236 4.4329541 5.53834473 5.17114258 5.81567383 C8.02280793 7.00954874 10.5908623 8.39455543 13.26171875 9.94921875 C14.28458984 10.5421875 15.30746094 11.13515625 16.36132812 11.74609375 C17.45896484 12.38675781 18.55660156 13.02742188 19.6875 13.6875 C20.84940348 14.3623338 22.01151671 15.03680656 23.17382812 15.7109375 C25.5872404 17.11107089 27.9997446 18.51275019 30.41162109 19.91552734 C35.93266952 23.124912 41.46685293 26.31153561 47 29.5 C53.14291541 33.03984211 59.28471377 36.58140787 65.4133606 40.14590454 C67.80315668 41.5354863 70.19436836 42.92262172 72.58569336 44.30957031 C74.27140589 45.28863253 75.95506587 46.27122606 77.63867188 47.25390625 C78.66154297 47.846875 79.68441406 48.43984375 80.73828125 49.05078125 C81.63587158 49.57325439 82.53346191 50.09572754 83.45825195 50.6340332 C91.77485198 55.10347679 100.92581163 55.32161754 110.0625 53 C115.59302037 51.12897818 120.32249616 47.80495442 125.1171875 44.546875 C128 43 128 43 130.18017578 43.40332031 C130.78071777 43.60022461 131.38125977 43.79712891 132 44 C132.1455841 48.54132797 132.23417333 53.08205341 132.3125 57.625 C132.3753418 59.55279297 132.3753418 59.55279297 132.43945312 61.51953125 C132.57763479 72.18715614 132.57763479 72.18715614 129.86328125 75.66015625 C126.96348337 78.02984101 124.14936668 79.99477514 120.875 81.8125 C119.84117187 82.39644531 118.80734375 82.98039062 117.7421875 83.58203125 C115 85 115 85 112 86 C112 96.89 112 107.78 112 119 C118.435 115.04 118.435 115.04 125 111 C127.51078819 109.46263948 130.02921912 107.93750757 132.5625 106.4375 C133.42584961 105.90672852 133.42584961 105.90672852 134.30664062 105.36523438 C138.45514748 102.93532645 138.45514748 102.93532645 141.40234375 103.28515625 C143 104 143 104 143.6875 105.6875 C144.1338706 108.99064243 142.87637478 110.30476868 141 113 C135.56669229 117.82468872 128.89032557 121.35642626 122.625 125 C121.59016479 125.61536621 121.59016479 125.61536621 120.53442383 126.24316406 C115.46801194 129.11700298 115.46801194 129.11700298 111 128 C111 134.27 111 140.54 111 147 C103.41444357 150.03422257 96.32444036 150.52057589 88.51171875 147.7734375 C84.19818108 145.77816799 80.11181123 143.3755212 76 141 C73.89136149 139.80989205 71.78192439 138.62119842 69.671875 137.43359375 C63.02986606 133.67735859 56.41952002 129.86788585 49.81402588 126.0479126 C46.88242474 124.35440767 43.946913 122.66773872 41.01171875 120.98046875 C36.64128374 118.46741348 32.27561558 115.94640532 27.9140625 113.41796875 C24.21291157 111.27278024 20.50127487 109.14921846 16.7734375 107.05078125 C15.2447702 106.17972517 13.71612275 105.30863426 12.1875 104.4375 C11.18360229 103.88376709 11.18360229 103.88376709 10.15942383 103.31884766 C5.95773164 100.90390515 2.40768919 98.25256764 0 94 C-0.6826614 90.88406736 -0.63428244 87.8691282 -0.56762695 84.68994141 C-0.56835709 83.77222961 -0.56908722 82.85451782 -0.56983948 81.90899658 C-0.56636853 78.8892412 -0.52753037 75.87104691 -0.48828125 72.8515625 C-0.47895138 70.75264325 -0.47183609 68.65371309 -0.46684265 66.55477905 C-0.44778669 61.04060605 -0.39869734 55.52709553 -0.34332275 50.01318359 C-0.29210039 44.38257813 -0.26932219 38.75186523 -0.24414062 33.12109375 C-0.19057777 22.08043871 -0.10528144 11.04027453 0 0 Z " fill="#E3E6E8" transform="translate(13,76)"/>
<path d="M0 0 C0.33 0 0.66 0 1 0 C1.07011242 13.99506034 1.12279957 27.99009341 1.15543652 41.98529339 C1.17109973 48.48366571 1.1923503 54.98192014 1.22631836 61.48022461 C1.25888793 67.75014723 1.27684808 74.01995637 1.28463173 80.28995705 C1.29017952 82.68338622 1.30101282 85.07680911 1.31719017 87.47019005 C1.33893204 90.81970064 1.34196822 94.16874087 1.34057617 97.51831055 C1.351362 98.51021393 1.36214783 99.50211731 1.3732605 100.52407837 C1.35087303 105.49450609 1.2914908 108.98910415 -2 113 C-3.84204102 114.55688477 -3.84204102 114.55688477 -5.94140625 115.87890625 C-6.74078613 116.38437988 -7.54016602 116.88985352 -8.36376953 117.41064453 C-13.18566613 120.31771499 -18.04709358 123.14732037 -22.9375 125.9375 C-24.66419362 126.92780415 -26.39088412 127.9181138 -28.11738586 128.90875244 C-29.89872765 129.93042847 -31.68080148 130.95081969 -33.46289062 131.97119141 C-37.96482448 134.55093219 -42.45484607 137.15120742 -46.94580078 139.75 C-56.62946618 145.35103557 -66.33172282 150.91868839 -76.0625 156.4375 C-77.54496216 157.28078857 -77.54496216 157.28078857 -79.05737305 158.14111328 C-79.9575415 158.65013184 -80.85770996 159.15915039 -81.78515625 159.68359375 C-82.97443726 160.35733032 -82.97443726 160.35733032 -84.18774414 161.04467773 C-86 162 -86 162 -87 162 C-87 155.73 -87 149.46 -87 143 C-85.02 142.67 -83.04 142.34 -81 142 C-78.30416832 140.77194607 -78.30416832 140.77194607 -75.70703125 139.1640625 C-74.74732422 138.59429687 -73.78761719 138.02453125 -72.79882812 137.4375 C-71.81333984 136.839375 -70.82785156 136.24125 -69.8125 135.625 C-68.31686523 134.73941406 -68.31686523 134.73941406 -66.79101562 133.8359375 C-60.9126382 130.52289549 -60.9126382 130.52289549 -56 126 C-55.2730774 122.89160979 -55.2730774 122.89160979 -55 120 C-57.70643595 118.92359008 -58.7495789 118.89602471 -61.48608398 120.03222656 C-62.39688721 120.56299805 -63.30769043 121.09376953 -64.24609375 121.640625 C-65.24833984 122.21683594 -66.25058594 122.79304688 -67.28320312 123.38671875 C-68.32412109 124.00160156 -69.36503906 124.61648437 -70.4375 125.25 C-71.47455078 125.84941406 -72.51160156 126.44882813 -73.58007812 127.06640625 C-78.07722256 129.67168838 -82.5465425 132.32079032 -87 135 C-89.71111376 105.22927209 -89.71111376 105.22927209 -85.37988281 98.47265625 C-81.44863022 95.0055487 -76.94110589 93.14658793 -71.90112305 91.83251953 C-69.26513677 90.67819653 -68.3782377 89.5234067 -67 87 C-66.58738923 83.90452603 -66.58738923 83.90452603 -66.70703125 80.484375 C-66.71669922 79.23398438 -66.72636719 77.98359375 -66.73632812 76.6953125 C-66.76146484 75.39335937 -66.78660156 74.09140625 -66.8125 72.75 C-66.82603516 71.43257813 -66.83957031 70.11515625 -66.85351562 68.7578125 C-66.88887449 65.50479679 -66.93822967 62.252604 -67 59 C-71.99475766 60.09260324 -75.8148269 62.82621121 -80.125 65.50390625 C-83 67 -83 67 -87 67 C-87.30040261 65.00945343 -87.51202539 63.00542415 -87.6875 61 C-87.87892578 59.329375 -87.87892578 59.329375 -88.07421875 57.625 C-85.53612515 49.06008777 -73.95522725 44.6673909 -66.55200195 40.62475586 C-65.44171631 40.02671143 -64.33143066 39.42866699 -63.1875 38.8125 C-60.78642148 37.50219254 -58.38902357 36.18523636 -55.9921875 34.8671875 C-55.09881432 34.37680244 -55.09881432 34.37680244 -54.18739319 33.87651062 C-47.76970265 30.34305534 -41.46894377 26.62295285 -35.18115234 22.86474609 C-30.28129686 19.93675064 -25.36234087 17.05080193 -20.40625 14.21875 C-19.30692139 13.58783447 -18.20759277 12.95691895 -17.07495117 12.30688477 C-14.9461537 11.08708365 -12.81365189 9.87371818 -10.67700195 8.66772461 C-9.71753662 8.11608643 -8.75807129 7.56444824 -7.76953125 6.99609375 C-6.49493042 6.27184204 -6.49493042 6.27184204 -5.19458008 5.53295898 C-2.89188124 3.92447684 -1.59506373 2.28680212 0 0 Z " fill="#F1F2F3" transform="translate(211,61)"/>
<path d="M0 0 C34.65 0 69.3 0 105 0 C105 74.25 105 148.5 105 225 C70.02 225 35.04 225 -1 225 C1.52429214 223.31713857 4.00377341 222.00015473 6.72998047 220.69311523 C17.76199747 215.37798906 28.220972 209.12385573 38.75878906 202.90283203 C43.13717113 200.33239592 47.53848893 197.80283343 51.94165039 195.27514648 C56.26706219 192.7908516 60.5846931 190.29325115 64.90087891 187.79296875 C66.94555609 186.61003908 68.99207126 185.43027994 71.04052734 184.25390625 C73.84663418 182.63949767 76.64311744 181.00959561 79.4375 179.375 C80.26604492 178.90239746 81.09458984 178.42979492 81.94824219 177.94287109 C83.08567871 177.27118896 83.08567871 177.27118896 84.24609375 176.5859375 C85.23113892 176.01431885 85.23113892 176.01431885 86.23608398 175.43115234 C89.21854649 173.01133293 90.79822317 170.62322532 91.28125477 166.73740196 C91.39849849 163.83684933 91.41661628 160.94981269 91.40405273 158.046875 C91.41091599 156.94226929 91.41777924 155.83766357 91.42485046 154.69958496 C91.44314664 151.04959244 91.43927712 147.40002853 91.43359375 143.75 C91.43815384 141.21321472 91.44345889 138.67643068 91.44947815 136.13964844 C91.45841457 130.82351074 91.45621336 125.50752926 91.44604492 120.19140625 C91.43455979 114.05132227 91.44864803 107.91167487 91.4754414 101.77164841 C91.50028126 95.85721931 91.50277475 89.94292578 91.49632454 84.02844238 C91.49617102 81.51500726 91.5022407 79.00156384 91.51461601 76.48815918 C91.52947275 72.97614935 91.51888721 69.46510438 91.50170898 65.953125 C91.51137695 64.91297241 91.52104492 63.87281982 91.53100586 62.80114746 C91.47395944 57.0673364 91.47395944 57.0673364 89.1204071 51.92208862 C86.80585704 49.82401494 84.56111633 48.28747293 81.8359375 46.7578125 C80.80968262 46.17443115 79.78342773 45.5910498 78.72607422 44.98999023 C77.62021973 44.37454346 76.51436523 43.75909668 75.375 43.125 C74.20917901 42.46601931 73.04398768 41.80592358 71.87939453 41.14477539 C69.45979031 39.77232851 67.03755499 38.40470799 64.61328125 37.04052734 C59.00932939 33.88221236 53.44385471 30.65715243 47.875 27.4375 C46.81216797 26.82495361 45.74933594 26.21240723 44.65429688 25.58129883 C39.19627883 22.43432228 33.74785783 19.27190805 28.3125 16.0859375 C27.2311377 15.45244385 26.14977539 14.8189502 25.03564453 14.16625977 C22.99358244 12.96856338 20.95279913 11.76868279 18.91357422 10.56616211 C13.69077548 7.50243025 8.42924332 4.67834609 3 2 C2.01 1.34 1.02 0.68 0 0 Z " fill="#FEFEFE" transform="translate(120,0)"/>
<path d="M0 0 C35.31 0 70.62 0 107 0 C107 0.33 107 0.66 107 1 C105.38738281 1.28810547 105.38738281 1.28810547 103.7421875 1.58203125 C97.62084733 3.12377168 92.50060067 6.47635393 87.125 9.6875 C85.38867933 10.70724389 83.65234962 11.72697279 81.91546631 12.74575806 C80.12189281 13.79938347 78.33081657 14.85715806 76.54003906 15.91552734 C71.05187876 19.15386067 65.52356208 22.32258459 60 25.5 C57.85930136 26.73685173 55.71867679 27.97383164 53.578125 29.2109375 C49.59640224 31.50900835 45.60863457 33.79580174 41.61242676 36.06854248 C39.81477741 37.09137632 38.01851794 38.11660933 36.22265625 39.14257812 C33.96757552 40.42992736 31.70990135 41.71274805 29.44921875 42.99023438 C20.48752515 47.64118314 20.48752515 47.64118314 14 55 C13.89929438 56.52169658 13.86059007 58.0477026 13.85282898 59.57270813 C13.84567368 60.53585938 13.83851837 61.49901062 13.83114624 62.49134827 C13.82845734 63.55163742 13.82576843 64.61192657 13.82299805 65.7043457 C13.81314125 67.37522751 13.81314125 67.37522751 13.80308533 69.0798645 C13.78332002 72.77850404 13.77168309 76.47710293 13.76171875 80.17578125 C13.75764322 81.43645102 13.7535677 82.69712078 13.74936867 83.99599266 C13.73064908 89.97874983 13.71608583 95.96148225 13.7077567 101.9442609 C13.69798474 108.84936732 13.67166685 115.75415315 13.63125581 122.65914661 C13.59745332 128.64030205 13.58561141 134.62130189 13.58155251 140.60256004 C13.57667228 143.14671186 13.56501778 145.6908599 13.54651451 148.23494911 C13.52224535 151.79271791 13.5230661 155.34964499 13.5300293 158.9074707 C13.51721924 159.96168716 13.50440918 161.01590363 13.49121094 162.10206604 C13.5242563 167.8892546 13.5242563 167.8892546 15.87760925 173.08662415 C18.19442154 175.17527473 20.44283673 176.71474594 23.1640625 178.2421875 C24.19015625 178.82548828 25.21625 179.40878906 26.2734375 180.00976562 C27.37945313 180.62529297 28.48546875 181.24082031 29.625 181.875 C30.79228271 182.53471848 31.95893882 183.19554672 33.125 183.85742188 C35.5461013 185.23054315 37.96981903 186.5988675 40.39550781 187.96386719 C45.95591945 191.09809346 51.47549586 194.30306812 57 197.5 C59.14442732 198.73585744 61.28895919 199.97153349 63.43359375 201.20703125 C67.39797224 203.49346072 71.35724825 205.78824907 75.31021118 208.09432983 C77.08292661 209.12812883 78.85672501 210.16004453 80.63085938 211.19140625 C82.8517792 212.48325603 85.07067069 213.77860189 87.28710938 215.078125 C93.05887612 218.4299487 98.82201451 221.46551675 105 224 C105 224.33 105 224.66 105 225 C70.35 225 35.7 225 0 225 C0 150.75 0 76.5 0 0 Z " fill="#FEFEFE" transform="translate(0,0)"/>
<path d="M0 0 C1.5 1.375 1.5 1.375 3 3 C3 3.66 3 4.32 3 5 C3.71647705 5.26917236 4.4329541 5.53834473 5.17114258 5.81567383 C8.02280793 7.00954874 10.5908623 8.39455543 13.26171875 9.94921875 C14.28458984 10.5421875 15.30746094 11.13515625 16.36132812 11.74609375 C17.45896484 12.38675781 18.55660156 13.02742188 19.6875 13.6875 C20.84940348 14.3623338 22.01151671 15.03680656 23.17382812 15.7109375 C25.5872404 17.11107089 27.9997446 18.51275019 30.41162109 19.91552734 C35.93266952 23.124912 41.46685293 26.31153561 47 29.5 C53.14291541 33.03984211 59.28471377 36.58140787 65.4133606 40.14590454 C67.80315668 41.5354863 70.19436836 42.92262172 72.58569336 44.30957031 C74.27140589 45.28863253 75.95506587 46.27122606 77.63867188 47.25390625 C78.66154297 47.846875 79.68441406 48.43984375 80.73828125 49.05078125 C81.63587158 49.57325439 82.53346191 50.09572754 83.45825195 50.6340332 C91.77485198 55.10347679 100.92581163 55.32161754 110.0625 53 C115.59302037 51.12897818 120.32249616 47.80495442 125.1171875 44.546875 C128 43 128 43 130.18017578 43.40332031 C130.78071777 43.60022461 131.38125977 43.79712891 132 44 C132.1455841 48.54132797 132.23417333 53.08205341 132.3125 57.625 C132.3753418 59.55279297 132.3753418 59.55279297 132.43945312 61.51953125 C132.57762805 72.18663578 132.57762805 72.18663578 129.83984375 75.66796875 C119.64019188 84.0437489 109.51500984 88.29912871 96.40625 88.3984375 C87.6191449 87.37058805 80.65703178 83.32615085 73.1875 78.8125 C71.05416014 77.54556957 68.92001226 76.27999897 66.78515625 75.015625 C65.67543457 74.35626953 64.56571289 73.69691406 63.42236328 73.01757812 C58.27093487 69.98066812 53.07731557 67.01859022 47.87982178 64.06152344 C46.12473703 63.06235029 44.37098962 62.06087077 42.61767578 61.05859375 C37.23756567 57.98355164 31.8540595 54.914972 26.45837402 51.86732483 C24.64687978 50.84271006 22.8374673 49.81452276 21.02880859 48.78491211 C18.77630888 47.50318615 16.52029976 46.22760114 14.26025391 44.95922852 C2.67113846 38.34227692 2.67113846 38.34227692 0 33 C-0.08649451 30.51900266 -0.11565054 28.06655072 -0.09765625 25.5859375 C-0.0962413 24.85629791 -0.09482635 24.12665833 -0.09336853 23.37490845 C-0.08776531 21.04156415 -0.07521235 18.70831536 -0.0625 16.375 C-0.05748541 14.79427222 -0.05292243 13.21354293 -0.04882812 11.6328125 C-0.03779484 7.75517146 -0.02052811 3.87760193 0 0 Z " fill="#444E61" transform="translate(13,76)"/>
<path d="M0 0 C0.89380371 0.30212402 0.89380371 0.30212402 1.80566406 0.61035156 C1.95124816 5.15167953 2.0398374 9.69240497 2.11816406 14.23535156 C2.16005859 15.52054688 2.20195312 16.80574219 2.24511719 18.12988281 C2.38329212 28.79698735 2.38329212 28.79698735 -0.35449219 32.27832031 C-8.66724462 39.10461083 -18.27750827 44.61035156 -29.19433594 44.61035156 C-29.19433594 34.05035156 -29.19433594 23.49035156 -29.19433594 12.61035156 C-30.51433594 12.28035156 -31.83433594 11.95035156 -33.19433594 11.61035156 C-32.21335937 11.49820313 -31.23238281 11.38605469 -30.22167969 11.27050781 C-21.25947518 10.0311016 -14.56155548 7.7209559 -7.0690918 2.5715332 C-2.59222807 -0.46030218 -2.59222807 -0.46030218 0 0 Z " fill="#56637A" transform="translate(143.1943359375,119.3896484375)"/>
<path d="M0 0 C0.33 0 0.66 0 1 0 C1.13637859 1.87293261 1.23261351 3.74880869 1.3125 5.625 C1.37050781 6.66914062 1.42851562 7.71328125 1.48828125 8.7890625 C0.83801857 13.06518989 -0.79363454 15.27132186 -4 18 C-7.89897637 20.70072933 -11.94957316 23.07922644 -16.0625 25.4375 C-17.15111328 26.08654297 -18.23972656 26.73558594 -19.36132812 27.40429688 C-20.40869141 28.01208984 -21.45605469 28.61988281 -22.53515625 29.24609375 C-23.487854 29.79966553 -24.44055176 30.3532373 -25.42211914 30.92358398 C-28.21398005 32.08934918 -29.24470736 32.11663781 -32 31 C-32.33449008 27.40423159 -32.36798667 25.54988429 -30.328125 22.50170898 C-27.86542034 19.85538614 -25.66535841 18.38350032 -22.5 16.66015625 C-21.448125 16.07169922 -20.39625 15.48324219 -19.3125 14.87695312 C-17.10581048 13.66821812 -14.89747549 12.46248224 -12.6875 11.25976562 C-5.01561324 6.96106193 -5.01561324 6.96106193 0 0 Z " fill="#F68B74" transform="translate(211,97)"/>
<path d="M0 0 C0.6875 1.6875 0.6875 1.6875 1 4 C-3.18486653 12.38314609 -12.55132941 16.45017727 -20.375 21 C-21.06489014 21.41024414 -21.75478027 21.82048828 -22.46557617 22.24316406 C-27.48772023 25.09189279 -27.48772023 25.09189279 -30.22119141 24.6015625 C-30.80819824 24.40304688 -31.39520508 24.20453125 -32 24 C-32.56176104 20.79796206 -32.82543677 19.06823536 -32 16 C-29.17040701 12.91380176 -25.6115774 11.06257516 -22 9 C-20.48950117 8.10170065 -18.97909077 7.20325259 -17.46875 6.3046875 C-15.85610549 5.36645125 -14.2415082 4.43156362 -12.625 3.5 C-11.84012207 3.04189941 -11.05524414 2.58379883 -10.24658203 2.11181641 C-9.49747559 1.69335449 -8.74836914 1.27489258 -7.9765625 0.84375 C-6.97230225 0.27430664 -6.97230225 0.27430664 -5.94775391 -0.30664062 C-3.57419787 -1.15157659 -2.34095091 -0.82230224 0 0 Z " fill="#B160DA" transform="translate(156,180)"/>
<path d="M0 0 C3.59608574 -0.46401106 5.66336873 0.27731192 8.75 1.9375 C14.7301486 4.82587109 20.98807333 4.63067225 27.5 4.82421875 C31 5 31 5 32 6 C32.38355126 9.45196138 32.50333112 11.30807583 30.42578125 14.1640625 C25.53296085 17.86716329 18.82248578 16.6797826 13 16 C7.91427602 14.47752212 3.58774589 12.27109768 0.3125 8 C-1.12685153 4.71005363 -1.17920277 3.3410745 0 0 Z " fill="#4995D4" transform="translate(91,170)"/>
<path d="M0 0 C0.49126049 6.26357118 0.49126049 6.26357118 -1.68774414 9.5300293 C-5.59311721 13.70178089 -10.48078825 16.05945329 -15.4375 18.8125 C-16.99307617 19.7087207 -16.99307617 19.7087207 -18.58007812 20.62304688 C-19.58361328 21.18701172 -20.58714844 21.75097656 -21.62109375 22.33203125 C-22.98899048 23.10123901 -22.98899048 23.10123901 -24.38452148 23.88598633 C-27.15525243 25.06612684 -29.02294387 25.22941773 -32 25 C-32.45012272 21.21896916 -32.2878969 19.4370631 -30.16796875 16.21875 C-26.25592256 11.76546234 -21.07586685 9.06156171 -16 6.125 C-15.01515625 5.53203125 -14.0303125 4.9390625 -13.015625 4.328125 C-4.99315173 -0.37694716 -4.99315173 -0.37694716 0 0 Z " fill="#ED65B4" transform="translate(189,94)"/>
<path d="M0 0 C0.33 0 0.66 0 1 0 C1.76676256 9.57601239 1.76676256 9.57601239 -0.75 14.25 C-5.33203 18.75302949 -12.40013292 23.75544381 -18.875 24.1953125 C-19.57625 24.13085938 -20.2775 24.06640625 -21 24 C-21.3125 20.8125 -21.3125 20.8125 -21 17 C-16.77319992 12.01253275 -11.55387371 9.19646021 -5.9609375 5.96484375 C-3.21569263 4.14313113 -1.79265286 2.70101052 0 0 Z " fill="#FA9A53" transform="translate(211,142)"/>
<path d="M0 0 C4.20956737 0.43803258 7.04651772 2.02882305 10.5625 4.3125 C11.49191406 4.90675781 12.42132813 5.50101563 13.37890625 6.11328125 C15.90013005 7.9281115 18.00692691 9.61667484 20 12 C20.25 15.75 20.25 15.75 20 19 C12.16251189 18.65923965 5.9896146 14.847252 0.375 9.5 C-1.30535903 6.44480177 -1.39054797 4.43682216 -1 1 C-0.67 0.67 -0.34 0.34 0 0 Z " fill="#19C2CC" transform="translate(70,179)"/>
<path d="M0 0 C0.53753906 0.22816406 1.07507813 0.45632812 1.62890625 0.69140625 C2.09039883 4.56794391 1.84794107 6.34095054 -0.24609375 9.69140625 C-4.67078264 14.45645583 -10.49260037 18.39363107 -16.99609375 19.06640625 C-17.77984375 18.94265625 -18.56359375 18.81890625 -19.37109375 18.69140625 C-19.82087778 14.91322042 -19.58804567 13.05557554 -17.62109375 9.75390625 C-13.67830719 5.48160726 -5.99232598 -0.77989086 0 0 Z " fill="#E050D8" transform="translate(176.37109375,144.30859375)"/>
<path d="M0 0 C0.54781993 3.80092347 0.77842881 7.22202549 0 11 C-3.35591214 14.59068789 -7.38967659 16.46322553 -12 18 C-12 14.04 -12 10.08 -12 6 C-10.18889433 4.99747693 -8.37607722 3.99804504 -6.5625 3 C-5.55316406 2.443125 -4.54382813 1.88625 -3.50390625 1.3125 C-1 0 -1 0 0 0 Z " fill="#B56ADC" transform="translate(146,161)"/>
<path d="M0 0 C0.47571957 3.77272046 0.69066385 7.24616289 0 11 C-3.00836183 14.45485835 -6.51010003 15.84480209 -11 16.3125 C-11.66 16.209375 -12.32 16.10625 -13 16 C-13.4802189 11.96616127 -13.20997377 10.31814207 -10.9375 6.875 C-8.43059802 4.14542191 -3.87584534 0 0 0 Z " fill="#E051D7" transform="translate(170,103)"/>
<path d="M0 0 C0 3.96 0 7.92 0 12 C-8.75 17 -8.75 17 -11 17 C-11.61300377 13.17213203 -11.88031331 9.79732785 -11 6 C-8.29782425 3.45195905 -3.93088118 0 0 0 Z " fill="#ED68B6" transform="translate(179,164)"/>
<path d="M0 0 C0 3.96 0 7.92 0 12 C-8.75 17 -8.75 17 -11 17 C-11.61300377 13.17213203 -11.88031331 9.79732785 -11 6 C-8.29782425 3.45195905 -3.93088118 0 0 0 Z " fill="#F68B73" transform="translate(201,129)"/>
<path d="M0 0 C0 3.96 0 7.92 0 12 C-8.75 17 -8.75 17 -11 17 C-11.61300377 13.17213203 -11.88031331 9.79732785 -11 6 C-8.29782425 3.45195905 -3.93088118 0 0 0 Z " fill="#E056D8" transform="translate(168,126)"/>
<path d="M0 0 C0.33 0 0.66 0 1 0 C1.86100008 11.8244011 1.86100008 11.8244011 -1.3125 15.625 C-6.26315789 20 -6.26315789 20 -10 20 C-10.49116241 16.5482197 -10.68861831 13.43281366 -10 10 C-8.13980466 7.97841785 -6.31128465 6.73383297 -3.9453125 5.3515625 C-1.71576431 3.80251898 -1.0051371 2.48639178 0 0 Z " fill="#FDAA43" transform="translate(211,97)"/>
<path d="M0 0 C0.33 0 0.66 0 1 0 C1.86015126 10.74233355 1.86015126 10.74233355 -1.125 14.5 C-3.96728871 16.9715554 -6.53537229 18.54969073 -10 20 C-10.48370789 16.22439118 -10.6934393 12.75699202 -10 9 C-8.15018455 6.87989189 -6.36283137 5.63980052 -3.9453125 4.21875 C-1.70298595 2.99929576 -1.70298595 2.99929576 0 0 Z " fill="#FA9A50" transform="translate(211,76)"/>
<path d="M0 0 C3.63 0.66 7.26 1.32 11 2 C11 5.63 11 9.26 11 13 C9.370625 12.855625 7.74125 12.71125 6.0625 12.5625 C4.68771484 12.44068359 4.68771484 12.44068359 3.28515625 12.31640625 C1 12 1 12 0 11 C-0.14310287 7.3308423 -0.04221662 3.67284559 0 0 Z " fill="#4C97D4" transform="translate(101,195)"/>
<path d="M0 0 C0.66 0.33 1.32 0.66 2 1 C2 4.3 2 7.6 2 11 C-4.4 15.06153846 -4.4 15.06153846 -7.4375 14.75 C-7.953125 14.5025 -8.46875 14.255 -9 14 C-9.79274611 8.89119171 -9.79274611 8.89119171 -9 6 C-6.28295801 3.46833125 -3.27974139 1.71795977 0 0 Z " fill="#896BDB" transform="translate(133,190)"/>
<path d="M0 0 C7.71484375 -0.09765625 7.71484375 -0.09765625 10 0 C11 1 11 1 11.3125 3.8125 C11 7 11 7 9.4375 9.375 C6.18317497 11.54455002 3.82869586 11.29451507 0 11 C0 7.37 0 3.74 0 0 Z " fill="#6679D8" transform="translate(112,175)"/>
<path d="M0 0 C0.53625 0.2475 1.0725 0.495 1.625 0.75 C2.11905138 4.9000316 1.81402785 6.46915862 -0.5625 10 C-3.27041457 12.64773869 -4.90680432 13.51427314 -8.375 14.75 C-8.72205118 11.02241323 -8.89819932 7.46578294 -8.375 3.75 C-5.55774095 0.93274095 -4.047681 -0.42607168 0 0 Z " fill="#EC62B5" transform="translate(176.375,144.25)"/>
<path d="M0 0 C0.2833062 3.70816341 0.4412957 7.30074348 0 11 C-2.25 13.25 -2.25 13.25 -5 14 C-7.3125 13.6875 -7.3125 13.6875 -9 13 C-9.35098791 9.22687995 -9.30640454 7.46488965 -7.1875 4.25 C-3.05555556 0 -3.05555556 0 0 0 Z " fill="#F1759A" transform="translate(188,115)"/>
<path d="M0 0 C0.33 3.63 0.66 7.26 1 11 C-2.76687864 12.88343932 -4.02958963 13.22057835 -8 13 C-8.3125 9.8125 -8.3125 9.8125 -8 6 C-3.04347826 0 -3.04347826 0 0 0 Z " fill="#F68B72" transform="translate(198,153)"/>
<path d="M0 0 C1.66611905 -0.042721 3.33382885 -0.04063832 5 0 C6 1 6 1 6.09765625 3.50390625 C6.08605469 4.51324219 6.07445313 5.52257812 6.0625 6.5625 C6.05347656 7.57441406 6.04445313 8.58632812 6.03515625 9.62890625 C6.02355469 10.41136719 6.01195313 11.19382813 6 12 C2.24143383 10.2958054 0.70177864 8.85139376 -1 5 C-0.6875 2.1875 -0.6875 2.1875 0 0 Z " fill="#3EA7D1" transform="translate(91,170)"/>
<path d="M0 0 C1.2065625 0.0309375 1.2065625 0.0309375 2.4375 0.0625 C2.76394414 4.22466275 2.84400982 6.42563462 0.5625 10 C-1.5625 12.0625 -1.5625 12.0625 -3.5625 12.0625 C-3.58937279 10.25007948 -3.60883715 8.43754767 -3.625 6.625 C-3.63660156 5.61566406 -3.64820313 4.60632813 -3.66015625 3.56640625 C-3.52706167 0.15386128 -3.42090834 0.08343679 0 0 Z " fill="#F1759A" transform="translate(186.5625,93.9375)"/>
<path d="M0 0 C2.5 1.5625 2.5 1.5625 5 4 C5.3125 7.75 5.3125 7.75 5 11 C3.33388095 11.042721 1.66617115 11.04063832 0 11 C-1 10 -1 10 -1.1328125 7.96875 C-1.13023438 7.1540625 -1.12765625 6.339375 -1.125 5.5 C-1.12757812 4.6853125 -1.13015625 3.870625 -1.1328125 3.03125 C-1 1 -1 1 0 0 Z " fill="#35A7D0" transform="translate(85,187)"/>
<path d="M0 0 C0.63019694 10.15317287 0.63019694 10.15317287 -2 13.6875 C-2.66 14.120625 -3.32 14.55375 -4 15 C-5.60598504 6.00997506 -5.60598504 6.00997506 -3.125 1.875 C-1 0 -1 0 0 0 Z " fill="#FDAC47" transform="translate(212,76)"/>
<path d="M0 0 C0.33 0 0.66 0 1 0 C1.63019694 10.15317287 1.63019694 10.15317287 -1 13.6875 C-1.66 14.120625 -2.32 14.55375 -3 15 C-3.08142927 13.2507786 -3.13938541 11.50045458 -3.1875 9.75 C-3.22230469 8.77546875 -3.25710937 7.8009375 -3.29296875 6.796875 C-2.95979506 3.61617683 -2.17311382 2.2990121 0 0 Z " fill="#FDAB47" transform="translate(211,142)"/>
<path d="M0 0 C0 3.63 0 7.26 0 11 C-1.32 11.33 -2.64 11.66 -4 12 C-4.08090971 10.37581255 -4.13914995 8.75048255 -4.1875 7.125 C-4.22230469 6.22007813 -4.25710937 5.31515625 -4.29296875 4.3828125 C-4.19628906 3.59648438 -4.09960938 2.81015625 -4 2 C-1 0 -1 0 0 0 Z " fill="#FA9A56" transform="translate(205,105)"/>
<path d="M0 0 C0.99 1.32 1.98 2.64 3 4 C2.67 4.33 2.34 4.66 2 5 C1.8415735 7.0708472 1.74875578 9.14678029 1.68359375 11.22265625 C1.64169922 12.48271484 1.59980469 13.74277344 1.55664062 15.04101562 C1.51682404 16.38150736 1.47711186 17.7220022 1.4375 19.0625 C1.39431958 20.40691523 1.35070544 21.7513166 1.30664062 23.09570312 C1.20014642 26.3970234 1.0981354 29.69842236 1 33 C0.67 33 0.34 33 0 33 C0 22.11 0 11.22 0 0 Z " fill="#5B6373" transform="translate(13,76)"/>
</svg>
