<?xml version="1.0" encoding="UTF-8"?>
<svg version="1.1" xmlns="http://www.w3.org/2000/svg" width="200" height="200">
<path d="M0 0 C66 0 132 0 200 0 C200 66 200 132 200 200 C134 200 68 200 0 200 C0 134 0 68 0 0 Z " fill="#5676FE" transform="translate(0,0)"/>
<path d="M0 0 C7.59 0 15.18 0 23 0 C34 14.17117117 34 14.17117117 34 19 C32.453125 19.0928125 32.453125 19.0928125 30.875 19.1875 C26.07047303 20.19490082 24.46470032 21.61779254 21 25 C19.83574024 27.32851952 19.84542008 28.76280184 19.79467773 31.35791016 C19.77473251 32.25869293 19.75478729 33.15947571 19.73423767 34.08755493 C19.70916893 35.54855118 19.70916893 35.54855118 19.68359375 37.0390625 C19.66281265 38.03505463 19.64203156 39.03104675 19.62062073 40.05722046 C19.55510958 43.24640854 19.49623296 46.43568058 19.4375 49.625 C19.39431627 51.78386293 19.35070203 53.9427173 19.30664062 56.1015625 C19.19942658 61.4009551 19.09816352 66.70043234 19 72 C12.73 72 6.46 72 0 72 C0 48.24 0 24.48 0 0 Z " fill="#DEE9FB" transform="translate(59,64)"/>
<path d="M0 0 C0.91644287 0.00523682 1.83288574 0.01047363 2.77709961 0.01586914 C4.26113281 0.02070312 4.26113281 0.02070312 5.77514648 0.02563477 C6.81606445 0.03401367 7.85698242 0.04239258 8.92944336 0.05102539 C10.49662109 0.05779297 10.49662109 0.05779297 12.09545898 0.06469727 C14.68600996 0.07652627 17.27644895 0.0930085 19.86694336 0.11352539 C18.65833674 3.32188973 17.33985157 6.16194378 15.46069336 9.02758789 C14.9727832 9.77588867 14.48487305 10.52418945 13.98217773 11.29516602 C13.44915039 12.10147461 12.91612305 12.9077832 12.36694336 13.73852539 C11.52873047 15.01373047 11.52873047 15.01373047 10.67358398 16.31469727 C9.43158174 18.20119798 8.18731406 20.08620855 6.94116211 21.9699707 C5.08009774 24.7904821 3.23028714 27.61789364 1.38439941 30.44833374 C-0.21840947 32.90235576 -1.82883834 35.35131588 -3.44091797 37.79925537 C-4.23120383 39.00196105 -5.01883607 40.20641488 -5.80371094 41.41265869 C-6.91608707 43.12032524 -8.03890389 44.82067457 -9.16430664 46.51977539 C-9.80948242 47.50268555 -10.4546582 48.4855957 -11.11938477 49.49829102 C-13.94213213 53.16430336 -16.45307424 55.79182663 -21.07055664 56.67602539 C-26.45879101 55.68634969 -28.98918996 52.75618509 -31.99633789 48.43774414 C-33.75509379 45.68855013 -35.45276312 42.91112748 -37.13305664 40.11352539 C-37.79305664 39.12352539 -38.45305664 38.13352539 -39.13305664 37.11352539 C-39.68242334 32.24770605 -39.86796037 30.21588099 -37.13305664 26.11352539 C-33.7996067 23.89122543 -31.99473996 23.38274793 -28.07055664 23.60571289 C-24.83107056 24.45477174 -23.16340553 26.57558928 -21.13305664 29.11352539 C-15.91597939 22.02684708 -11.3187687 14.62814123 -6.77832031 7.09643555 C-6.32046143 6.33766113 -5.86260254 5.57888672 -5.39086914 4.79711914 C-4.77429443 3.76929321 -4.77429443 3.76929321 -4.14526367 2.72070312 C-2.5160917 0.13391126 -2.5160917 0.13391126 0 0 Z " fill="#E4EDFB" transform="translate(121.133056640625,63.886474609375)"/>
<path d="M0 0 C0.33 0 0.66 0 1 0 C1 20.13 1 40.26 1 61 C-4.94 61 -10.88 61 -17 61 C-18.98085898 37.13340044 -18.10965613 21.98245946 -2.58227539 2.85302734 C-1.74933674 1.87755993 -0.90700702 0.90700702 0 0 Z " fill="#DDE9FB" transform="translate(140,75)"/>
<path d="M0 0 C0.33 0.66 0.66 1.32 1 2 C-0.98 4.97 -0.98 4.97 -3 8 C-2.34 8 -1.68 8 -1 8 C-0.67 7.34 -0.34 6.68 0 6 C0.99 6 1.98 6 3 6 C4.31131672 8.62263343 4.19043444 10.65878803 4.26879883 13.59545898 C4.30165482 14.76684921 4.3345108 15.93823944 4.36836243 17.14512634 C4.39762314 18.41594559 4.42688385 19.68676483 4.45703125 20.99609375 C4.48729904 22.29571548 4.51756683 23.59533722 4.54875183 24.93434143 C4.61076904 27.68735651 4.6676836 30.44043475 4.72241211 33.19360352 C4.79397497 36.72275014 4.88896197 40.25086388 4.98918629 43.77929592 C5.07922947 47.14290645 5.14111211 50.50692527 5.20703125 53.87109375 C5.24641312 55.13988876 5.28579498 56.40868378 5.32637024 57.71592712 C5.34346542 58.89046951 5.36056061 60.0650119 5.37817383 61.27514648 C5.41362053 62.82829811 5.41362053 62.82829811 5.44978333 64.41282654 C5 67 5 67 3.13578796 68.83729553 C0.47172476 70.28758847 -1.29240883 70.33543398 -4.3125 70.25 C-5.27542969 70.22292969 -6.23835938 70.19585937 -7.23046875 70.16796875 C-16.38738739 69.61261261 -16.38738739 69.61261261 -18 68 C-18.1009003 65.50243196 -18.13971766 63.03312358 -18.1328125 60.53515625 C-18.13376923 59.78664902 -18.13472595 59.03814178 -18.13571167 58.26695251 C-18.13639346 56.68065304 -18.13453922 55.09435079 -18.13037109 53.50805664 C-18.12503024 51.07627091 -18.1303122 48.64467051 -18.13671875 46.21289062 C-18.13605782 44.67447876 -18.13477635 43.13606701 -18.1328125 41.59765625 C-18.13584885 40.50228294 -18.13584885 40.50228294 -18.13894653 39.38478088 C-18.11495668 34.22991336 -18.11495668 34.22991336 -17 32 C-18.175625 33.2065625 -18.175625 33.2065625 -19.375 34.4375 C-22 37 -22 37 -24 38 C-22.465643 33.5646183 -20.07474936 29.902091 -17.4375 26.0625 C-16.53800179 24.73509316 -15.63959009 23.4069495 -14.7421875 22.078125 C-14.05914551 21.06782227 -14.05914551 21.06782227 -13.36230469 20.03710938 C-10.83234263 16.25395464 -8.39374648 12.41210115 -5.95678711 8.56860352 C-4.07834222 5.62014173 -2.14392943 2.76224136 0 0 Z M1 7 C-0.58467607 9.24951144 -2.11573041 11.51297864 -3.625 13.8125 C-4.03878906 14.43576172 -4.45257813 15.05902344 -4.87890625 15.70117188 C-5.76709268 17.04425014 -6.64083594 18.39695156 -7.50268555 19.75708008 C-9 22 -9 22 -10.88208008 24.3269043 C-17.38027037 32.92171004 -16.82493093 40.90439389 -16.4375 51.1875 C-16.40231197 52.82350031 -16.37038625 54.4595742 -16.34179688 56.09570312 C-16.27141685 60.06714733 -16.13445729 64.02817445 -16 68 C-10.06 68 -4.12 68 2 68 C2 47.87 2 27.74 2 7 C1.67 7 1.34 7 1 7 Z " fill="#5E76E2" transform="translate(139,68)"/>
<path d="M0 0 C0.66 0.66 1.32 1.32 2 2 C0.02 2.99 0.02 2.99 -2 4 C-0.88625 3.938125 0.2275 3.87625 1.375 3.8125 C3.169375 3.9053125 3.169375 3.9053125 5 4 C5.99 5.485 5.99 5.485 7 7 C7.99 6.67 8.98 6.34 10 6 C9.34 7.65 8.68 9.3 8 11 C7.01 10.34 6.02 9.68 5 9 C5 8.34 5 7.68 5 7 C1.27932162 5.75977387 -2.13426839 5.47886515 -6 6 C-8.70558862 7.20495919 -8.70558862 7.20495919 -10 10 C-10.31607666 13.36094848 -10.2311397 16.6356333 -10 20 C-10.66 20 -11.32 20 -12 20 C-12 19.01 -12 18.02 -12 17 C-12.66 17 -13.32 17 -14 17 C-13.67 28.55 -13.34 40.1 -13 52 C-13.99 52.495 -13.99 52.495 -15 53 C-15.1270508 46.70139162 -15.21445561 40.4031151 -15.2746582 34.10351562 C-15.29976163 31.96178844 -15.33385168 29.82014659 -15.37719727 27.67871094 C-15.4380315 24.5954887 -15.46625181 21.51340157 -15.48828125 18.4296875 C-15.51408768 17.47633514 -15.5398941 16.52298279 -15.56648254 15.54074097 C-15.56833667 11.11977116 -15.49723775 8.00084722 -12.65698242 4.47314453 C-8.26752728 0.3873979 -5.96945959 -0.43414252 0 0 Z " fill="#5D76E6" transform="translate(93,83)"/>
<path d="M0 0 C0.33 0 0.66 0 1 0 C1 23.76 1 47.52 1 72 C0.67 72 0.34 72 0 72 C-0.77945467 67.82474396 -1.15355892 63.82792133 -1.23706055 59.58325195 C-1.27666145 57.70649529 -1.27666145 57.70649529 -1.31706238 55.79182434 C-1.34068208 54.44065026 -1.36389114 53.08946895 -1.38671875 51.73828125 C-1.41240402 50.34156621 -1.43818784 48.94485297 -1.46406555 47.54814148 C-1.51684499 44.63069224 -1.56580189 41.71320609 -1.61254883 38.7956543 C-1.67314866 35.05621617 -1.74737148 31.31718086 -1.82492352 27.5780611 C-1.88246743 24.69829994 -1.93078501 21.81843786 -1.976511 18.93846703 C-1.99991009 17.55929723 -2.02666205 16.18018009 -2.05682945 14.80114174 C-2.09794384 12.87713186 -2.12486495 10.95283443 -2.15112305 9.02856445 C-2.17031296 7.93413528 -2.18950287 6.83970612 -2.20927429 5.71211243 C-2 3 -2 3 0 0 Z " fill="#5E7AE1" transform="translate(58,64)"/>
<path d="M0 0 C3.4375 0.375 3.4375 0.375 5.4375 2.375 C3.4575 3.365 3.4575 3.365 1.4375 4.375 C2.55125 4.313125 3.665 4.25125 4.8125 4.1875 C6.606875 4.2803125 6.606875 4.2803125 8.4375 4.375 C9.4275 5.86 9.4275 5.86 10.4375 7.375 C11.4275 7.045 12.4175 6.715 13.4375 6.375 C12.7775 8.025 12.1175 9.675 11.4375 11.375 C10.4475 10.715 9.4575 10.055 8.4375 9.375 C8.4375 8.715 8.4375 8.055 8.4375 7.375 C5.79309361 6.4935312 4.15689248 6.21325182 1.4375 6.1875 C0.756875 6.17332031 0.07625 6.15914063 -0.625 6.14453125 C-2.88864132 6.26559589 -2.88864132 6.26559589 -5.5625 8.375 C-6.25 6.625 -6.25 6.625 -6.5625 4.375 C-4.94175524 0.72832428 -4.01416543 0.42254373 0 0 Z " fill="#5F7AED" transform="translate(89.5625,82.625)"/>
<path d="M0 0 C0.66 0 1.32 0 2 0 C1.67 3.3 1.34 6.6 1 10 C-1 10 -3 10 -5 10 C-5.33 9.34 -5.66 8.68 -6 8 C-5.04956626 6.66102417 -4.08940853 5.32894573 -3.125 4 C-2.59132813 3.2575 -2.05765625 2.515 -1.5078125 1.75 C-1.01023437 1.1725 -0.51265625 0.595 0 0 Z " fill="#5270F7" transform="translate(120,100)"/>
<path d="M0 0 C0.99 0.33 1.98 0.66 3 1 C3.8125 2.9375 3.8125 2.9375 4 5 C3.34 5.66 2.68 6.32 2 7 C7.28 7.33 12.56 7.66 18 8 C18 8.33 18 8.66 18 9 C12.06 9 6.12 9 0 9 C0 6.03 0 3.06 0 0 Z " fill="#B6CBF8" transform="translate(123,127)"/>
<path d="M0 0 C1.54571278 2.31856917 2.79618552 4.50638429 4 7 C1.50935112 7.68707555 -0.37886292 8 -3 8 C-3.75 6.25 -3.75 6.25 -4 4 C-2.0625 1.75 -2.0625 1.75 0 0 Z " fill="#F0F6FD" transform="translate(85,73)"/>
<path d="M0 0 C0.33 2.64 0.66 5.28 1 8 C-3.875 3.25 -3.875 3.25 -5 1 C-3 0 -3 0 0 0 Z " fill="#D1E1FB" transform="translate(94,110)"/>
<path d="M0 0 C1.953125 0.8359375 1.953125 0.8359375 4 2 C4.75 4.625 4.75 4.625 5 7 C5.99 7 6.98 7 8 7 C8 8.65 8 10.3 8 12 C4.02502456 8.59287819 2.13206212 4.67239145 0 0 Z " fill="#677FE7" transform="translate(84,68)"/>
<path d="M0 0 C2.375 -0.1875 2.375 -0.1875 5 0 C5.66 0.99 6.32 1.98 7 3 C7.99 2.67 8.98 2.34 10 2 C9.34 3.65 8.68 5.3 8 7 C7.01 6.34 6.02 5.68 5 5 C5 4.34 5 3.68 5 3 C2.525 2.01 2.525 2.01 0 1 C0 0.67 0 0.34 0 0 Z " fill="#657BDE" transform="translate(93,87)"/>
<path d="M0 0 C0.66 0 1.32 0 2 0 C2 3.63 2 7.26 2 11 C0.68 10.67 -0.64 10.34 -2 10 C-1.67 9.46375 -1.34 8.9275 -1 8.375 C0.22699204 5.4608939 0.14233286 3.13132292 0 0 Z " fill="#CEE1FE" transform="translate(139,124)"/>
<path d="M0 0 C0.33 0.66 0.66 1.32 1 2 C1.99 2.33 2.98 2.66 4 3 C3.34 4.98 2.68 6.96 2 9 C1.34 9 0.68 9 0 9 C0 6.03 0 3.06 0 0 Z " fill="#D2E2FB" transform="translate(60,126)"/>
<path d="M0 0 C0.33 0.99 0.66 1.98 1 3 C1.99 3.33 2.98 3.66 4 4 C5.6875 6.0625 5.6875 6.0625 7 8 C6.01 8.66 5.02 9.32 4 10 C0 4.5 0 4.5 0 0 Z " fill="#D3E4FD" transform="translate(82,97)"/>
<path d="M0 0 C1.32 0 2.64 0 4 0 C3.67 1.98 3.34 3.96 3 6 C2.01 6.33 1.02 6.66 0 7 C0 4.69 0 2.38 0 0 Z " fill="#5170F5" transform="translate(107,117)"/>
<path d="M0 0 C0.33 0.99 0.66 1.98 1 3 C1.99 3.33 2.98 3.66 4 4 C4 4.66 4 5.32 4 6 C2.35 6.33 0.7 6.66 -1 7 C-1 3 -1 3 0 0 Z " fill="#EEF6FB" transform="translate(115,73)"/>
<path d="M0 0 C0.66 0 1.32 0 2 0 C1.74438677 2.3431213 1.40729228 4.67843403 1 7 C0.01 7.495 0.01 7.495 -1 8 C-1 7.34 -1 6.68 -1 6 C-1.66 5.67 -2.32 5.34 -3 5 C-1.625 2.5 -1.625 2.5 0 0 Z " fill="#5772EC" transform="translate(132,80)"/>
<path d="M0 0 C0.66 0.33 1.32 0.66 2 1 C1.19185349 2.33597652 0.37836819 3.668725 -0.4375 5 C-0.88996094 5.7425 -1.34242187 6.485 -1.80859375 7.25 C-2.20175781 7.8275 -2.59492187 8.405 -3 9 C-3.33 9 -3.66 9 -4 9 C-4.25 6.75 -4.25 6.75 -4 4 C-2 1.6875 -2 1.6875 0 0 Z " fill="#697FE3" transform="translate(112,72)"/>
<path d="M0 0 C0.66 0.33 1.32 0.66 2 1 C1.39816251 3.02045442 0.72693904 5.02111039 0 7 C-0.99 7.495 -0.99 7.495 -2 8 C-2.6875 6.25 -2.6875 6.25 -3 4 C-1.5625 1.75 -1.5625 1.75 0 0 Z " fill="#6E83EC" transform="translate(86,83)"/>
</svg>
